# xmcd
#
# Track frame offsets: 
#        150
#        13176
#        43809
#        60219
#        73695
#        84846
#        95097
#        111882
#        131400
#        140274
#        149649
#        156051
#        167639
#        190589
#        220448
#        238403
#        248060
#        259340
#        270338
#        282227
#
# Disc length: 3892 seconds
#
# Revision: 0
# Processed by: cddbd v1.5.1PL0 Copyright (c) Steve Scherf et al.
# Submitted via: ExactAudioCopy v0.95a5
#
DISCID=260f3214
DTITLE=Mega Juke-box  - CD1
DYEAR=2004
DGENRE=Blues
TTITLE0=Percy Sledge - When a man loves a woman
TTITLE1=Ray Charles - Georgia on my mind
TTITLE2=The Drifters - Unchanged Melody
TTITLE3=Los Bravos - Black is black
TTITLE4=The Equals - Baby come back
TTITLE5=The Champs - Tequilla
TTITLE6=Mungo Jerry - In the summertime
TTITLE7=Trini Lopez - La Bamba
TTITLE8=Gene Vincent - Say Mama
TTITLE9=Little Richard - Long tall sally
TTITLE10=Chuck Burry - Memphis Tenessee
TTITLE11=Frankie Avalon - Venus
TTITLE12=Marilyn Monroe - My heart belongs to Daddy
TTITLE13=Joe Tex - Ain't gonna bump no more
TTITLE14=Martha Reeves and The Vandellas - Heatwave
TTITLE15=The diamonds - Little Darlin'
TTITLE16=Helen Shapiro - Walkin' back to Happiness
TTITLE17=The Cascades - Rythm of the rain
TTITLE18=The Shirelles - Will you love me tomorrow
TTITLE19=The Marcels - Blue Moon
EXTD=
EXTT0=
EXTT1=
EXTT2=
EXTT3=
EXTT4=
EXTT5=
EXTT6=
EXTT7=
EXTT8=
EXTT9=
EXTT10=
EXTT11=
EXTT12=
EXTT13=
EXTT14=
EXTT15=
EXTT16=
EXTT17=
EXTT18=
EXTT19=
PLAYORDER=
